<svg width="34" height="35" viewBox="0 0 34 35" fill="none" xmlns="http://www.w3.org/2000/svg">
<rect width="33.99" height="34.4947" rx="16.995" fill="#141414"/>
<rect x="0.571636" y="0.571636" width="32.8467" height="33.3514" rx="16.4234" stroke="white" stroke-opacity="0.14" stroke-width="1.14327"/>
<path d="M13.719 17.2476C13.719 17.3324 13.7369 17.4128 13.7726 17.4887C13.8039 17.5602 13.8508 17.6272 13.9133 17.6897L19.2188 22.8813C19.3394 23.0019 19.4867 23.0622 19.6609 23.0622C19.7726 23.0622 19.8753 23.0354 19.9691 22.9818C20.0628 22.9282 20.1365 22.8545 20.1901 22.7607C20.2437 22.6714 20.2705 22.5687 20.2705 22.4526C20.2705 22.2873 20.2125 22.1422 20.0963 22.0171L15.2196 17.2476L20.0963 12.478C20.2125 12.3529 20.2705 12.2078 20.2705 12.0425C20.2705 11.9264 20.2437 11.8237 20.1901 11.7344C20.1365 11.6406 20.0628 11.5669 19.9691 11.5133C19.8753 11.4597 19.7726 11.433 19.6609 11.433C19.4867 11.433 19.3394 11.491 19.2188 11.6071L13.9133 16.8054C13.8508 16.868 13.8039 16.9372 13.7726 17.0131C13.7369 17.0846 13.719 17.1627 13.719 17.2476Z" fill="white" fill-opacity="0.8"/>
</svg>
