<svg width="122" height="78" viewBox="0 0 122 78" fill="none" xmlns="http://www.w3.org/2000/svg">
<path d="M42.4223 9.91708C46.0442 16.1323 46.0442 23.815 42.4223 30.0303C38.8439 36.1708 32.2721 39.9473 25.165 39.9473L24.8421 39.9473C17.735 39.9473 11.1632 36.1708 7.58485 30.0303C3.96295 23.815 3.96295 16.1323 7.58485 9.91708C11.1632 3.77655 17.735 -1.33528e-06 24.8421 -1.02462e-06L25.165 -1.01051e-06C32.2721 -6.99844e-07 38.8439 3.77655 42.4223 9.91708Z" fill="black"/>
<path d="M8.35513 16.1431C11.1675 11.3116 18.0118 11.0794 20.8242 15.9109C22.1274 18.1498 22.2801 21.1443 21.0054 23.3996C18.214 28.3381 11.1004 28.3381 8.30908 23.3996C7.03435 21.1443 7.05188 18.382 8.35513 16.1431Z" fill="#26D466"/>
<path d="M43.7288 8.65819L22.1689 46.1043C18.3427 52.7499 18.4992 60.9652 22.5759 67.4602L23.8081 69.4233C26.8321 74.2413 32.121 77.1661 37.8094 77.1661C43.7512 77.1661 49.2359 73.9773 52.1755 68.8136L74.4835 29.6279C78.0076 23.4375 77.9391 15.8321 74.3039 9.70617L73.5656 8.46195C70.4526 3.21606 64.8045 0 58.7045 0C52.5234 0 46.813 3.30148 43.7288 8.65819Z" fill="black"/>
<path d="M55.653 23.4803L33.9739 60.9117C31.1971 65.7063 24.2986 65.775 21.4268 61.0366C20.0441 58.755 20.0175 55.9005 21.3576 53.5937L43.0855 16.1906C45.8844 11.3726 52.8419 11.3695 55.645 16.1851C56.957 18.4391 56.9601 21.2234 55.653 23.4803Z" fill="#26D466"/>
<path d="M85.5451 8.6582L63.9852 46.1043C60.159 52.7499 60.3155 60.9652 64.3922 67.4602L65.6243 69.4233C68.6484 74.2413 73.9373 77.1661 79.6257 77.1661C85.5675 77.1661 91.0522 73.9773 93.9918 68.8136L116.3 29.6279C119.824 23.4375 119.755 15.8321 116.12 9.70617L115.382 8.46195C112.269 3.21606 106.621 0 100.521 0C94.3397 0 88.6292 3.30148 85.5451 8.6582Z" fill="black"/>
<path d="M97.4691 23.4803L75.7901 60.9117C73.0132 65.7063 66.1147 65.775 63.243 61.0366C61.8602 58.755 61.8337 55.9005 63.1738 53.5937L84.9017 16.1906C87.7005 11.3726 94.6581 11.3695 97.4612 16.1851C98.7732 18.4391 98.7762 21.2234 97.4691 23.4803Z" fill="#26D466"/>
</svg>
